{"glyphs":{"0":{"ha":635,"x_min":39,"x_max":608,"o":"m 219 994 q 266 1001 241 998 q 320 1015 290 1004 q 374 1029 350 1025 q 427 1026 399 1034 q 471 1008 456 1019 q 496 985 486 997 q 515 963 507 974 q 537 944 522 952 l 537 944 q 567 887 570 925 l 567 887 q 572 868 567 879 q 582 844 576 857 l 582 844 q 593 781 595 811 q 596 720 590 750 q 608 659 602 690 l 608 659 q 604 525 621 581 q 577 426 587 469 q 569 352 567 382 q 566 292 571 321 q 552 231 562 262 l 552 231 q 494 127 529 159 l 494 127 q 467 93 481 118 q 434 41 453 68 l 434 41 q 314 -26 384 -26 q 197 24 244 -26 q 132 159 151 75 l 132 159 q 111 209 125 187 l 111 209 q 73 279 87 248 l 73 279 q 65 434 50 338 l 65 434 q 68 461 68 448 l 68 461 q 43 533 68 490 l 43 533 q 39 716 -1 616 l 39 716 q 50 755 47 738 q 54 789 52 773 l 54 789 q 73 846 58 829 q 87 873 87 864 q 98 895 88 883 q 119 921 107 907 q 144 955 130 935 q 178 983 159 975 q 219 994 197 990 z m 337 705 q 334 694 335 699 q 329 686 334 690 q 319 682 324 682 l 319 682 l 309 682 q 289 674 296 682 l 289 674 q 259 627 274 652 q 239 567 244 602 l 239 567 q 244 476 231 505 l 244 476 q 254 418 256 450 q 252 369 251 385 q 254 340 252 353 q 260 318 256 328 q 269 296 264 308 q 279 269 273 285 q 293 239 285 254 l 293 239 q 347 206 316 203 l 347 206 q 380 286 377 209 l 380 286 q 385 351 380 327 l 385 351 l 396 392 q 399 481 408 446 q 393 530 391 515 q 396 559 395 544 l 396 559 q 389 624 400 602 q 374 659 377 646 q 368 684 370 671 l 368 684 q 350 711 362 708 l 350 711 q 337 705 339 711 z "},"1":{"ha":431,"x_min":22,"x_max":387,"o":"m 355 587 l 355 587 q 366 529 366 576 q 366 460 366 481 q 343 416 365 438 l 343 416 q 342 328 338 368 l 342 328 q 340 298 342 312 q 339 271 339 283 l 339 271 q 363 235 342 248 l 363 235 q 384 104 406 212 l 384 104 q 378 50 378 73 q 376 17 378 26 q 363 -3 374 8 q 342 -17 353 -15 q 319 -15 331 -19 l 319 -15 l 290 -5 q 250 1 274 0 l 250 1 q 193 -9 214 3 q 161 -26 172 -22 q 136 -30 151 -31 q 111 -20 122 -28 q 92 -3 100 -12 l 92 -3 q 77 28 77 18 q 82 58 77 39 q 79 121 87 77 q 78 186 71 165 q 127 222 85 206 l 127 222 q 140 368 153 278 l 140 368 q 133 468 134 411 q 130 573 132 525 q 127 643 127 621 q 121 680 126 665 l 121 680 q 72 715 110 708 l 72 715 q 43 719 54 718 q 22 734 31 720 l 22 734 q 24 792 5 757 l 24 792 q 45 827 34 808 q 66 865 57 845 q 88 908 75 884 q 119 952 102 932 l 119 952 q 212 1000 163 1000 l 212 1000 q 277 1005 259 1000 l 277 1005 q 316 1015 308 1015 l 316 1015 q 376 990 351 1015 l 376 990 q 385 947 388 978 q 379 890 382 917 q 371 833 376 863 q 365 779 366 803 q 362 738 363 755 q 360 703 361 720 q 357 671 359 685 l 357 671 q 355 587 373 666 z "},"2":{"ha":605,"x_min":16,"x_max":578,"o":"m 500 407 q 470 368 483 395 q 441 322 457 342 q 407 284 426 302 q 366 247 388 266 l 366 247 q 292 156 316 199 l 292 156 q 326 140 298 141 l 326 140 q 342 141 335 138 l 342 141 q 376 152 355 151 q 407 154 397 153 q 420 155 416 155 l 420 155 q 448 152 433 152 l 448 152 q 484 162 463 160 q 517 159 505 164 q 536 159 530 155 q 552 160 541 164 q 568 138 563 156 q 574 100 572 121 l 574 100 q 567 37 576 50 l 567 37 q 551 20 552 30 q 538 5 549 11 q 519 -1 528 -1 q 505 3 511 0 l 505 3 q 472 9 484 11 q 445 1 460 7 q 416 -3 430 -5 q 386 1 401 -1 q 353 6 370 4 q 317 8 335 8 q 271 1 298 8 q 220 -17 244 -7 q 166 -26 195 -27 q 122 -17 137 -24 q 97 1 107 -9 q 80 24 87 11 q 60 53 73 37 q 37 94 46 69 q 54 144 28 118 q 93 193 79 171 q 117 234 107 216 q 134 267 126 252 q 154 299 141 282 q 182 330 167 316 q 212 358 197 345 l 212 358 q 258 419 241 385 l 258 419 q 281 456 267 439 q 309 491 296 472 l 309 491 q 342 580 339 533 q 339 646 345 627 q 323 673 334 666 l 323 673 q 276 646 301 688 q 221 590 251 605 q 174 594 191 575 q 144 625 156 613 q 104 640 132 637 q 50 651 77 642 q 16 689 22 661 l 16 689 q 30 802 7 743 q 95 910 53 861 q 189 991 137 959 q 286 1023 241 1023 q 363 1010 331 1023 q 418 963 396 998 l 418 963 q 452 949 427 964 q 491 905 476 935 l 491 905 q 511 888 500 902 l 511 888 q 526 857 526 868 l 526 857 q 543 836 533 853 l 543 836 q 559 791 559 807 l 559 791 q 575 727 568 787 l 575 727 q 578 674 578 705 q 571 605 578 643 l 571 605 q 576 558 576 590 q 566 491 576 526 l 566 491 q 500 407 543 434 l 500 407 z "},"3":{"ha":594,"x_min":9,"x_max":594,"o":"m 456 502 l 456 502 q 582 368 545 450 l 582 368 q 594 313 594 340 l 594 313 q 570 208 594 279 q 538 97 547 136 q 512 45 530 58 q 479 28 494 31 q 450 26 464 26 l 450 26 l 423 26 q 373 11 393 26 l 373 11 l 339 -12 q 279 -31 313 -31 q 234 -26 244 -31 q 218 -16 224 -22 q 204 -5 212 -11 q 175 2 197 0 q 133 20 153 4 q 98 57 113 35 l 98 57 q 69 146 64 104 l 69 146 q 107 193 72 182 l 107 193 q 191 160 151 208 l 191 160 q 256 123 224 123 l 256 123 q 304 144 277 123 q 347 182 331 164 q 370 236 363 201 l 370 236 q 380 271 376 252 q 362 311 384 289 l 362 311 q 326 332 339 332 q 292 321 312 332 q 255 308 271 311 q 221 309 239 305 l 221 309 q 157 370 182 320 l 157 370 q 159 453 132 416 l 159 453 q 201 481 176 475 q 247 505 227 488 q 282 543 267 521 l 282 543 q 300 636 321 597 l 300 636 q 271 662 286 662 q 240 656 255 662 q 218 645 225 651 q 206 632 212 639 l 206 632 q 177 614 193 616 q 154 616 161 612 q 141 629 146 621 l 141 629 q 96 649 125 648 q 43 659 68 650 q 10 704 18 669 q 14 781 3 739 q 47 863 24 822 l 47 863 q 176 989 102 958 l 176 989 q 300 1023 222 1039 l 300 1023 q 410 1001 357 1050 l 410 1001 q 461 913 454 963 l 461 913 q 518 857 496 891 q 548 770 540 822 q 551 688 556 719 q 537 632 547 656 l 537 632 q 506 572 525 601 q 475 532 487 544 q 456 502 464 521 z "},"4":{"ha":586,"x_min":0,"x_max":586,"o":"m 518 977 l 518 977 l 519 925 q 509 871 519 899 q 505 810 499 842 q 517 754 511 777 l 517 754 q 518 667 526 712 l 518 667 q 500 541 509 614 l 500 541 q 502 407 486 427 l 502 407 q 525 397 507 400 l 525 397 q 570 374 557 391 q 585 332 583 357 q 583 285 587 308 l 583 285 q 555 218 574 232 l 555 218 q 530 218 547 214 q 506 214 514 221 q 493 189 498 206 q 486 151 488 172 l 486 151 q 487 76 483 118 l 487 76 q 473 -14 491 15 l 473 -14 q 427 -28 464 -27 l 427 -28 q 340 -3 358 -33 l 340 -3 q 336 17 335 5 q 337 40 336 28 q 338 63 338 52 q 334 84 339 75 l 334 84 q 324 97 330 94 q 315 104 319 100 l 315 104 q 305 144 305 114 l 305 144 q 298 203 305 189 l 298 203 q 237 229 283 229 l 237 229 q 179 218 198 229 l 179 218 q 120 194 141 197 q 79 191 99 191 q 45 198 60 191 l 45 198 q 16 259 11 213 q 17 340 20 305 q 9 401 14 374 q 1 448 4 429 q 4 479 -3 468 q 14 498 11 490 q 19 514 16 507 l 19 514 q 37 544 24 533 l 37 544 q 100 636 76 593 l 100 636 q 92 677 91 656 q 123 730 94 699 l 123 730 q 198 860 171 781 l 198 860 q 252 1001 229 955 l 252 1001 q 300 1015 269 1029 q 373 999 331 1001 q 444 1010 415 997 q 496 1017 473 1024 q 518 977 519 1010 z m 305 400 l 305 400 q 308 439 304 423 q 311 470 312 454 q 311 501 309 486 q 312 533 312 517 l 312 533 q 298 600 315 572 l 298 600 q 294 587 296 593 q 287 564 292 581 q 266 519 282 547 q 243 469 250 491 q 230 437 236 446 q 220 420 224 429 l 220 420 q 215 394 209 406 q 250 389 221 382 q 305 400 278 395 z "},"5":{"ha":594,"x_min":28,"x_max":572,"o":"m 45 808 q 41 865 37 833 q 45 935 46 897 q 69 989 45 974 q 116 1004 94 1005 q 167 998 138 1002 l 167 998 q 304 995 248 985 q 396 1013 359 1005 q 461 1024 433 1021 l 461 1024 q 540 1006 521 1029 q 562 949 559 983 q 561 879 564 916 q 553 808 557 842 q 553 741 548 774 l 553 741 q 553 633 562 677 l 553 633 q 538 597 548 614 q 508 583 528 581 q 479 591 488 585 q 460 604 469 597 l 460 604 q 411 613 437 621 l 411 613 q 328 631 354 597 l 328 631 q 263 642 302 656 l 263 642 q 248 632 254 637 l 248 632 q 231 510 229 600 l 231 510 q 238 481 232 488 q 256 472 244 473 q 285 472 269 471 l 285 472 q 355 478 336 479 q 402 471 374 477 q 458 454 430 465 q 507 426 487 444 q 521 391 526 408 q 519 363 515 373 q 532 342 524 353 l 532 342 q 566 281 556 309 q 572 213 576 252 q 548 149 568 174 q 516 106 528 125 q 496 71 505 87 l 496 71 q 456 13 473 31 q 406 -15 438 -5 q 340 -24 374 -24 l 340 -24 q 252 -16 286 -26 q 208 -9 217 -7 q 190 -11 199 -11 l 190 -11 q 155 20 167 -11 l 155 20 q 114 57 141 50 l 114 57 q 90 62 102 60 l 90 62 q 49 103 57 68 l 49 103 q 62 193 38 151 l 62 193 q 98 222 76 213 l 98 222 q 136 232 119 232 q 163 225 152 232 l 163 225 q 198 183 183 214 l 198 183 q 243 156 228 176 l 243 156 q 275 140 254 141 l 275 140 q 343 160 316 136 l 343 160 q 380 197 376 190 l 380 197 q 387 222 387 208 q 380 254 387 237 q 358 288 373 271 l 358 288 q 201 316 300 359 l 201 316 q 172 304 184 309 q 149 300 160 298 q 127 313 138 302 q 94 339 115 324 q 62 361 73 354 q 47 383 52 368 q 53 416 42 399 q 63 446 64 433 q 62 476 62 458 q 62 514 62 494 l 62 514 q 45 587 60 567 q 28 623 31 606 q 31 661 26 639 q 40 700 35 684 q 49 733 45 716 q 53 767 53 750 q 45 808 53 784 z "},"6":{"ha":575,"x_min":14,"x_max":560,"o":"m 216 457 l 216 457 q 222 424 217 430 q 238 425 228 418 q 263 442 248 431 l 263 442 q 327 477 305 472 l 327 477 q 361 491 351 483 l 361 491 q 399 503 377 503 q 444 494 422 503 q 484 450 465 486 l 484 450 q 510 416 496 429 l 510 416 q 541 369 533 396 l 541 369 q 552 336 547 351 q 559 304 557 320 l 559 304 q 519 125 568 233 l 519 125 q 486 70 502 84 q 462 41 469 56 q 445 14 454 27 l 445 14 q 406 -23 425 -20 q 380 -25 388 -26 q 363 -22 372 -24 l 363 -22 q 320 -20 345 -18 l 320 -20 q 217 5 243 -30 l 217 5 q 199 28 206 23 q 174 38 191 34 l 174 38 q 84 182 122 50 l 84 182 q 64 240 71 233 l 64 240 q 52 250 60 244 q 37 269 43 256 l 37 269 q 30 377 12 309 l 30 377 q 36 420 38 404 q 30 458 34 435 l 30 458 q 24 500 24 481 q 27 534 24 518 l 27 534 q 26 583 31 570 q 18 608 22 597 q 14 632 15 620 l 14 632 q 33 694 12 658 q 60 758 54 731 q 72 809 66 785 q 88 858 77 833 q 117 909 99 883 l 117 909 q 205 990 157 971 l 205 990 q 249 1010 231 1001 q 282 1023 267 1019 l 282 1023 q 350 1019 312 1034 l 350 1019 q 396 1004 385 1016 q 408 985 407 991 l 408 985 q 431 985 418 997 q 449 964 444 972 q 458 952 454 955 q 467 947 463 949 l 467 947 q 484 924 477 941 l 484 924 q 506 888 488 911 l 506 888 q 538 828 533 849 q 545 795 544 807 l 545 795 q 537 751 548 770 l 537 751 q 553 717 553 734 q 551 689 553 700 l 551 689 q 517 648 540 648 l 517 648 q 467 646 490 648 q 432 628 445 644 q 402 606 419 612 q 369 600 385 600 q 339 608 353 600 q 324 632 326 616 l 324 632 q 298 670 321 667 q 248 633 275 673 l 248 633 q 216 457 210 574 z m 282 239 l 282 239 q 321 199 292 210 l 321 199 q 368 220 345 189 l 368 220 q 393 260 388 240 l 393 260 q 373 321 400 297 l 373 321 q 351 343 362 332 q 323 349 339 354 l 323 349 q 282 239 252 324 z "},"7":{"ha":552,"x_min":16,"x_max":532,"o":"m 38 826 l 38 826 q 16 869 5 836 l 16 869 q 30 903 22 884 l 30 903 q 46 987 49 949 l 46 987 q 63 1002 57 994 q 83 1009 69 1009 q 106 1006 98 1009 q 123 998 114 1002 l 123 998 q 179 987 149 987 l 179 987 q 320 1000 258 987 q 408 1014 382 1013 q 457 1009 434 1015 l 457 1009 q 525 966 510 1000 l 525 966 q 530 926 534 947 q 527 883 525 905 q 530 834 529 861 q 532 776 532 807 l 532 776 q 523 682 529 705 q 503 630 517 658 q 475 570 490 602 l 475 570 q 429 443 434 479 q 422 376 423 407 q 412 326 422 345 q 385 286 403 308 q 363 235 366 264 q 351 182 359 205 q 341 138 343 160 q 338 97 339 117 q 329 60 338 77 q 307 37 320 43 q 290 24 293 30 q 283 10 286 18 q 274 -5 279 3 l 274 -5 q 163 4 243 -53 l 163 4 q 138 33 144 16 q 130 60 133 49 l 130 60 q 122 97 122 85 q 130 130 122 109 q 136 175 137 152 q 143 220 134 198 q 155 266 152 243 l 155 266 q 181 353 161 321 q 216 415 201 385 q 247 479 231 445 l 247 479 q 300 640 309 614 l 300 640 q 275 646 296 651 q 237 642 254 642 l 237 642 l 206 642 q 169 639 174 642 q 159 628 164 636 q 144 612 153 620 l 144 612 q 94 593 122 590 l 94 593 q 45 633 53 595 l 45 633 q 37 728 12 652 l 37 728 q 33 774 30 747 q 38 826 35 802 z "},"8":{"ha":595,"x_min":23,"x_max":574,"o":"m 567 732 l 567 732 q 570 662 582 704 l 570 662 q 574 638 574 652 q 570 610 574 624 l 570 610 q 548 570 562 575 q 528 549 534 566 q 509 509 521 532 q 489 480 496 487 q 481 467 481 473 q 492 458 481 461 q 515 439 503 454 q 529 416 528 425 q 530 400 530 408 l 530 400 q 538 368 530 380 q 547 340 545 357 q 547 305 548 323 l 547 305 q 551 222 543 255 q 549 162 559 189 q 505 111 540 136 l 505 111 q 476 84 483 95 l 476 84 q 448 52 467 65 l 448 52 q 419 28 435 43 q 385 0 403 14 l 385 0 q 306 -35 340 -35 q 242 -32 271 -35 q 199 -9 213 -28 l 199 -9 q 184 4 193 -1 q 168 15 176 9 l 168 15 q 106 122 106 57 l 106 122 q 99 144 106 130 q 83 156 92 157 l 83 156 q 46 182 54 152 l 46 182 q 42 214 39 202 q 51 243 45 225 q 60 288 57 260 l 60 288 q 94 382 68 346 q 123 451 119 418 q 104 500 127 484 l 104 500 q 87 524 88 513 l 87 524 l 83 543 q 71 558 81 549 q 56 578 61 567 q 49 599 52 589 q 44 618 46 609 q 35 642 42 628 q 28 669 27 655 q 23 709 28 684 l 23 709 q 23 762 16 735 q 38 818 30 788 l 38 818 q 43 859 45 848 q 42 884 41 871 l 42 884 q 85 956 45 910 l 85 956 q 121 977 107 975 q 144 977 136 978 q 167 980 153 977 q 197 991 180 983 q 233 987 214 998 l 233 987 q 297 1015 274 997 l 297 1015 q 320 1021 302 1017 q 347 1023 338 1024 q 367 1023 357 1023 q 391 1016 377 1023 l 391 1016 q 450 976 439 990 q 469 955 460 962 q 486 941 477 948 l 486 941 q 509 907 506 924 l 509 907 q 522 897 513 907 q 540 871 532 886 l 540 871 q 556 819 562 831 l 556 819 q 566 783 562 810 q 567 732 570 757 z m 330 574 q 340 608 336 590 q 350 650 345 625 q 346 690 355 674 q 326 707 336 707 q 306 701 315 707 q 288 691 297 694 q 274 687 279 688 q 264 686 269 686 l 264 686 q 231 646 239 681 l 231 646 q 234 592 224 612 q 252 562 244 572 l 252 562 q 286 540 270 540 q 313 549 302 540 q 330 574 323 559 z m 331 243 q 345 281 345 258 q 337 315 345 305 q 319 332 330 324 q 296 351 308 340 l 296 351 q 270 321 270 355 l 270 321 q 263 304 270 311 l 263 304 q 251 277 250 290 q 245 246 252 263 q 245 214 237 229 q 260 196 252 199 q 279 190 269 193 l 279 190 q 313 213 293 210 l 313 213 q 331 243 317 229 z "},"9":{"ha":605,"x_min":22,"x_max":585,"o":"m 564 773 l 564 773 l 557 704 q 564 680 557 692 l 564 680 l 576 662 q 584 567 591 640 q 564 439 576 494 l 564 439 q 501 265 538 328 q 445 155 464 202 q 419 94 426 107 q 393 66 412 81 q 364 52 374 52 q 348 54 354 52 q 335 54 342 56 l 335 54 q 303 28 317 50 q 274 -12 289 7 q 239 -30 259 -30 q 212 -26 218 -30 q 198 -16 205 -22 l 198 -16 q 161 -3 182 -4 q 132 9 141 -3 q 121 35 122 20 l 121 35 q 150 92 118 73 q 203 125 182 111 q 223 165 224 140 q 235 206 222 190 q 266 243 248 222 q 300 290 283 263 q 330 343 316 316 l 330 343 q 346 423 363 411 l 346 423 q 323 423 336 430 q 292 404 309 416 l 292 404 q 167 384 220 358 l 167 384 q 114 452 133 400 l 114 452 q 94 499 104 473 q 69 532 84 525 l 69 532 q 22 601 41 549 l 22 601 q 30 735 0 662 l 30 735 q 54 827 52 784 q 79 909 56 871 q 124 966 102 947 q 174 996 146 985 q 233 1015 202 1008 l 233 1015 q 391 1009 343 1039 l 391 1009 q 415 987 406 998 l 415 987 q 467 979 449 987 q 503 945 486 970 q 534 890 521 920 l 534 890 q 564 773 564 822 z m 269 713 q 258 685 262 700 q 259 653 255 670 q 269 618 263 636 q 297 589 275 600 l 297 589 q 330 585 320 579 q 354 597 339 590 l 354 597 q 377 632 369 606 l 377 632 q 361 722 391 682 l 361 722 q 321 743 343 743 q 288 734 300 743 q 269 713 275 726 z "}," ":{"ha":327,"x_min":null,"x_max":null,"o":""},"!":{"ha":281,"x_min":35,"x_max":240,"o":"m 217 418 l 217 418 l 214 321 q 175 197 214 228 l 175 197 q 130 182 149 179 q 99 197 110 184 l 99 197 q 87 225 88 209 q 81 272 87 241 q 66 333 75 302 q 60 399 57 363 l 60 399 q 63 465 62 434 q 52 511 64 496 l 52 511 q 35 557 35 532 l 35 557 q 41 586 35 574 l 41 586 q 53 648 53 621 q 52 688 53 675 q 48 711 50 700 q 43 747 46 723 q 43 801 41 770 q 43 863 46 831 l 43 863 q 40 913 41 894 q 49 958 39 932 q 64 993 58 985 q 85 1008 71 1001 q 106 1019 100 1016 q 121 1021 111 1023 q 141 1008 130 1020 q 167 990 152 997 l 167 990 q 201 974 182 983 q 224 943 221 964 q 229 918 227 922 q 233 911 231 914 l 233 911 q 239 876 236 906 q 234 814 241 845 q 226 764 227 784 q 218 722 225 743 q 214 679 212 701 q 214 646 216 656 q 211 626 213 635 q 209 608 209 617 q 214 578 209 598 q 218 543 218 559 q 219 508 217 526 q 219 471 221 490 q 217 418 217 453 z m 46 24 q 44 45 42 34 q 66 73 46 56 q 117 107 87 91 q 198 117 146 123 l 198 117 q 236 88 222 114 l 236 88 q 210 0 264 39 l 210 0 q 167 -20 186 -16 q 140 -32 148 -23 q 117 -37 133 -41 l 117 -37 q 95 -20 100 -33 q 79 -3 90 -7 q 59 8 68 1 q 46 24 50 15 z "},"\"":{"ha":384,"x_min":20,"x_max":359,"o":"m 113 989 l 113 989 q 165 898 172 989 l 165 898 q 150 783 161 852 q 140 698 138 715 q 143 663 142 681 q 140 629 144 646 l 140 629 q 92 593 130 593 l 92 593 q 49 633 65 593 l 49 633 q 33 720 34 667 q 35 810 33 773 q 29 869 38 846 q 20 907 20 891 q 23 939 20 924 l 23 939 q 40 980 30 971 q 59 994 50 989 q 85 994 68 1000 q 113 989 103 989 z m 233 689 l 233 689 l 227 789 l 227 814 q 222 837 227 826 q 221 859 218 848 q 221 876 224 869 l 221 876 q 222 890 218 883 q 224 906 227 898 q 226 918 221 914 q 225 930 231 921 l 225 930 q 231 962 218 947 q 248 983 244 977 q 260 987 252 990 q 275 986 267 983 q 290 991 282 989 l 290 991 q 323 994 315 1000 l 323 994 q 331 978 331 987 l 331 978 q 347 973 340 979 q 358 941 354 967 l 358 941 q 355 862 366 903 q 345 794 343 821 q 339 745 346 768 q 332 702 332 722 q 331 662 331 682 l 331 662 q 266 602 327 578 l 266 602 q 236 636 239 614 l 236 636 q 233 689 233 655 z "},"#":{"ha":814,"x_min":1,"x_max":821,"o":"m 141 411 q 149 441 146 430 q 165 458 151 453 q 182 491 180 463 q 178 544 184 519 l 178 544 q 125 543 152 544 q 76 548 98 543 l 76 548 q 30 606 26 559 l 30 606 q 102 663 33 669 l 102 663 q 144 662 118 662 q 197 670 170 662 l 197 670 q 240 864 245 802 q 258 968 235 926 q 320 1010 281 1010 l 320 1010 q 370 951 357 1010 l 370 951 q 369 844 385 901 l 369 844 q 335 680 327 696 l 335 680 q 372 677 338 675 l 372 677 q 460 681 444 682 l 460 681 q 527 681 518 671 q 542 717 536 690 q 552 773 548 743 l 552 773 q 559 871 559 825 l 559 871 q 558 911 556 894 q 572 935 560 928 q 589 953 583 943 q 610 977 595 963 l 610 977 q 670 1001 648 1012 l 670 1001 q 683 983 681 996 q 689 960 685 971 l 689 960 q 681 879 700 922 l 681 879 q 665 821 669 852 q 656 772 661 789 q 649 728 651 754 q 650 694 647 703 l 650 694 q 689 678 654 682 l 689 678 q 739 705 734 692 l 739 705 q 798 692 768 718 l 798 692 q 814 672 808 678 q 820 648 821 666 q 809 620 819 629 q 781 594 799 610 l 781 594 q 716 578 749 568 l 716 578 q 696 581 709 581 q 667 579 682 581 l 667 579 q 617 572 632 576 l 617 572 q 598 500 602 533 q 585 445 594 468 l 585 445 q 582 416 575 422 q 606 410 589 410 q 641 412 623 410 q 678 418 659 415 l 678 418 q 740 412 726 422 q 754 374 754 401 q 739 332 754 347 q 701 311 723 317 q 644 305 680 305 l 644 305 l 594 305 q 559 298 564 305 q 545 243 553 290 q 520 146 537 197 q 498 71 503 96 q 486 28 492 46 q 472 -3 480 11 l 472 -3 q 423 -23 450 -33 l 423 -23 q 406 102 359 -4 l 406 102 q 453 297 460 222 l 453 297 q 372 320 450 320 l 372 320 q 277 313 301 320 q 241 283 252 305 q 233 248 229 262 q 229 201 237 233 q 210 150 221 168 q 192 113 198 132 q 180 75 186 95 q 168 37 174 56 q 152 3 163 19 l 152 3 q 85 -24 123 -37 l 85 -24 q 46 39 52 -14 l 46 39 q 54 86 43 68 q 66 123 64 104 l 66 123 q 75 159 69 142 q 87 195 81 175 l 87 195 q 104 259 98 241 l 104 259 q 122 311 117 286 l 122 311 q 61 300 90 304 q 18 304 33 296 q 1 328 4 313 q 3 357 -1 342 l 3 357 q 37 401 11 393 l 37 401 q 141 411 83 419 l 141 411 z m 259 408 l 259 408 q 334 408 297 429 l 334 408 q 377 393 357 392 q 422 406 397 395 q 468 416 448 416 l 468 416 l 506 557 q 461 574 484 574 l 461 574 q 335 574 399 574 l 335 574 q 290 552 307 572 l 290 552 q 273 482 283 543 q 259 408 262 422 z "},"%":{"ha":764,"x_min":14,"x_max":750,"o":"m 640 1000 l 640 1000 q 678 974 661 994 q 698 924 696 954 q 690 880 700 895 q 667 854 681 864 q 642 836 654 844 q 626 820 629 829 q 624 802 623 811 q 625 781 625 792 l 625 781 q 604 734 625 755 l 604 734 l 586 711 q 572 692 578 701 q 556 673 567 684 l 556 673 q 517 621 526 643 q 492 581 507 598 q 455 534 477 564 q 420 479 433 503 q 389 439 408 456 q 364 398 369 422 q 355 358 359 374 l 355 358 q 315 288 347 317 l 315 288 q 270 156 285 258 l 270 156 q 201 -8 255 49 l 201 -8 q 151 -33 179 -31 q 104 -25 122 -35 q 81 3 87 -15 l 81 3 q 103 94 68 41 l 103 94 q 115 119 113 109 q 129 142 117 130 q 148 158 141 155 q 157 178 155 161 q 174 208 160 194 q 193 246 187 221 q 210 286 198 271 q 229 321 222 300 q 246 351 236 342 q 267 378 256 359 q 281 404 278 396 q 288 418 285 411 l 288 418 q 312 457 296 435 q 339 498 328 479 q 359 533 350 518 l 359 533 q 390 590 378 575 q 416 622 401 605 q 448 659 431 639 l 448 659 q 502 751 487 711 l 502 751 q 564 920 517 798 l 564 920 q 506 926 543 941 l 506 926 q 475 914 492 922 q 442 898 458 906 l 442 898 q 392 878 399 879 q 373 878 385 878 q 347 880 361 878 l 347 880 q 350 846 351 859 q 351 821 349 833 q 350 791 354 810 q 349 757 346 772 q 343 720 353 742 q 327 676 334 699 q 307 637 320 654 q 281 606 294 620 q 256 580 269 591 q 234 551 244 568 q 196 522 224 534 q 138 514 168 510 q 85 533 107 518 q 49 568 64 548 l 49 568 q 14 652 14 613 q 16 720 14 690 q 38 780 19 749 l 38 780 q 133 998 14 929 l 133 998 q 202 1020 174 1023 l 202 1020 q 317 956 282 1015 l 317 956 q 380 951 346 943 q 444 972 414 960 q 502 994 473 983 l 502 994 q 572 1024 563 1019 q 602 1024 582 1029 q 640 1000 623 1019 z m 101 701 q 127 653 107 675 q 164 633 146 631 q 198 655 182 636 q 228 699 214 674 l 228 699 q 241 798 270 774 l 241 798 q 215 841 220 817 q 201 876 210 865 l 201 876 q 174 879 182 894 l 174 879 q 165 859 171 873 q 142 821 159 844 q 119 780 126 799 l 119 780 q 104 743 113 761 q 101 701 95 726 z m 648 475 q 674 470 669 469 q 694 467 680 471 q 724 443 708 464 q 743 389 741 422 q 747 342 745 357 q 750 312 749 327 l 750 312 q 748 239 753 285 q 727 154 743 194 q 689 79 711 114 l 689 79 q 594 -11 640 0 l 594 -11 q 456 11 524 -23 l 456 11 q 435 31 441 18 q 418 56 430 45 q 403 83 407 68 q 396 117 399 99 q 392 152 393 134 q 389 184 391 170 q 391 211 387 198 q 401 234 395 224 q 414 254 407 244 q 427 281 420 263 q 456 321 434 298 q 494 365 479 345 q 516 399 509 385 q 532 425 524 412 l 532 425 q 579 463 551 453 l 579 463 q 648 475 627 480 z m 616 330 l 616 330 q 591 324 601 331 q 564 307 581 317 q 539 296 548 296 q 526 285 530 296 l 526 285 q 512 272 522 274 q 496 254 502 270 q 489 207 491 237 q 498 157 487 176 l 498 157 q 503 139 502 146 q 505 126 503 132 l 505 126 q 529 109 510 115 l 529 109 q 589 137 553 100 l 589 137 q 623 198 623 174 l 623 198 q 627 219 623 206 q 637 247 632 232 l 637 247 q 616 330 655 305 z "},"&":{"ha":646,"x_min":8,"x_max":646,"o":"m 335 524 l 335 524 q 442 389 422 389 l 442 389 q 479 418 457 389 l 479 418 q 524 505 518 469 l 524 505 q 578 583 534 581 l 578 583 q 613 566 601 586 q 631 515 625 545 q 641 465 637 484 q 646 426 644 445 l 646 426 q 633 368 647 382 q 595 346 618 353 l 595 346 q 575 314 586 331 q 553 279 564 297 l 553 279 q 522 220 530 243 l 522 220 q 571 137 534 167 l 571 137 q 608 94 601 111 l 608 94 q 606 39 621 60 q 574 3 590 18 q 533 -5 559 -12 q 492 5 507 1 q 467 18 477 8 l 467 18 q 442 99 442 39 l 442 99 q 404 66 425 80 q 374 39 384 53 q 354 11 365 24 q 330 -14 343 -3 l 330 -14 q 258 -22 298 -37 q 194 6 218 -7 q 152 19 170 19 q 122 26 134 19 q 100 43 110 34 l 100 43 q 46 75 72 71 q 12 101 20 80 q 8 141 4 122 l 8 141 q 18 238 23 194 q 16 311 12 282 q 30 369 20 340 l 30 369 q 98 467 53 435 l 98 467 q 133 492 119 483 q 155 506 146 500 l 155 506 q 163 552 175 521 l 163 552 q 148 583 156 567 l 148 583 q 123 652 125 625 l 123 652 q 117 697 121 689 q 106 724 113 705 q 102 765 100 743 q 102 802 103 787 l 102 802 q 107 836 99 825 l 107 836 l 118 852 q 123 882 122 859 q 134 920 123 905 q 156 951 145 936 l 156 951 q 165 959 160 959 l 165 959 q 187 974 176 959 q 213 995 198 989 q 249 1004 228 1001 q 293 1006 270 1006 l 293 1006 q 399 1010 365 1009 l 399 1010 q 476 959 473 1013 l 476 959 q 477 933 477 944 l 477 933 l 477 914 q 514 851 513 884 q 503 802 515 818 q 489 780 491 787 q 484 763 487 773 q 477 741 481 753 l 477 741 q 459 699 468 712 q 439 673 450 686 q 415 643 429 659 l 415 643 q 335 524 373 589 z m 315 713 q 302 735 313 732 q 264 741 292 738 q 233 728 237 745 q 236 696 229 712 l 236 696 q 252 631 245 674 l 252 631 q 275 653 263 643 q 296 673 286 663 l 296 673 q 315 713 316 693 z m 157 260 q 175 195 160 214 q 221 156 190 176 l 221 156 q 267 140 252 136 q 288 154 281 145 q 304 165 296 163 q 320 171 312 168 l 320 171 q 347 195 343 178 l 347 195 q 307 269 355 233 l 307 269 q 275 298 283 283 q 264 343 267 312 l 264 343 q 228 410 254 408 l 228 410 q 180 358 205 410 l 180 358 q 157 260 155 305 z "},"'":{"ha":197,"x_min":27,"x_max":171,"o":"m 138 978 l 138 978 q 165 945 161 981 l 165 945 q 170 898 172 916 q 159 850 168 880 q 152 794 151 821 q 146 745 153 768 q 138 702 138 722 q 137 662 137 682 l 137 662 q 73 602 137 576 l 73 602 q 43 636 46 614 l 43 636 q 42 659 42 646 l 42 659 l 42 689 q 38 742 42 727 l 38 742 q 34 780 34 757 l 34 780 l 34 814 q 29 837 34 826 q 27 859 24 848 q 27 876 30 869 l 27 876 q 31 890 26 883 q 32 906 35 898 q 34 918 28 914 q 34 930 39 921 l 34 930 q 45 967 26 948 l 45 967 q 56 983 52 977 q 67 987 61 990 q 81 986 73 983 q 98 991 88 989 l 98 991 q 138 978 138 1004 z "},"(":{"ha":312,"x_min":35,"x_max":304,"o":"m 262 1042 q 278 1052 270 1048 q 294 1050 286 1055 q 303 1033 301 1044 q 304 1009 305 1021 l 304 1009 q 278 964 301 981 q 248 932 255 947 q 236 913 240 917 q 228 901 232 909 l 228 901 q 214 854 218 878 q 206 821 210 831 q 198 803 202 811 l 198 803 q 191 766 191 787 q 189 735 191 745 q 184 720 187 726 q 176 707 180 713 l 176 707 q 159 661 164 690 l 159 661 q 141 583 152 625 l 141 583 q 157 486 130 543 l 157 486 q 161 452 167 464 q 152 426 156 439 l 152 426 q 158 351 144 391 q 175 296 172 311 q 179 273 178 281 l 179 273 q 195 229 183 252 q 208 186 208 205 q 216 159 208 168 q 224 136 224 151 q 239 108 225 121 q 257 78 252 95 q 269 55 262 61 q 282 39 275 49 q 294 19 289 30 q 298 -3 298 8 q 290 -23 298 -15 l 290 -23 q 228 -1 273 -41 l 228 -1 q 212 10 218 7 q 198 32 206 14 q 175 63 190 50 q 157 94 160 76 q 145 117 153 111 q 134 132 137 123 q 127 148 130 140 l 127 148 q 113 174 121 170 l 113 174 q 100 199 104 178 l 100 199 q 83 249 91 239 q 76 276 76 259 q 71 304 76 293 q 66 330 65 316 q 62 355 66 345 l 62 355 q 49 420 56 370 l 49 420 q 46 453 46 439 q 41 482 46 467 q 37 526 37 498 q 36 568 37 555 q 37 595 35 582 q 43 623 39 608 l 43 623 q 49 680 52 659 l 49 680 q 72 765 45 715 l 72 765 q 87 789 79 779 l 87 789 q 114 848 104 818 l 114 848 q 152 925 138 918 l 152 925 q 176 970 156 948 l 176 970 q 222 1012 208 1005 q 245 1027 237 1019 q 262 1042 254 1035 z "},")":{"ha":315,"x_min":14,"x_max":281,"o":"m 279 606 l 279 606 q 281 570 281 601 q 279 499 281 540 l 279 499 q 264 355 278 400 l 264 355 q 230 237 244 289 q 206 168 216 184 q 193 134 197 152 q 176 108 190 115 q 157 84 163 100 q 140 56 151 68 q 117 31 129 43 l 117 31 q 70 -6 88 3 q 39 -27 52 -15 q 14 -24 26 -39 l 14 -24 q 60 76 -11 3 l 60 76 q 115 175 125 145 l 115 175 q 117 193 110 186 q 130 208 125 199 q 136 223 136 217 q 142 232 137 229 l 142 232 q 157 285 161 245 l 157 285 q 160 316 156 300 l 160 316 q 164 363 167 343 q 169 404 161 384 q 171 438 176 425 q 168 473 165 452 q 184 502 170 495 l 184 502 q 189 561 187 532 q 183 604 191 590 q 174 625 175 617 q 171 640 172 633 l 171 640 q 162 671 170 658 q 157 703 155 685 l 157 703 q 143 760 161 728 q 122 802 125 791 q 117 828 119 814 q 110 857 114 842 l 110 857 q 84 912 99 898 q 65 936 69 926 q 56 956 61 945 q 37 974 50 966 q 23 989 23 982 l 23 989 q 18 1006 23 996 q 14 1027 12 1016 q 24 1042 16 1039 q 43 1044 33 1044 l 43 1044 q 79 1027 69 1042 q 100 1006 88 1013 q 114 985 111 1000 l 114 985 q 134 956 117 970 q 157 926 151 941 q 174 904 163 911 q 191 877 186 897 q 205 848 195 857 q 218 817 214 838 q 223 772 221 796 q 243 736 225 747 l 243 736 q 263 685 260 722 l 263 685 q 268 673 264 677 q 273 661 271 670 q 276 642 275 652 q 277 622 277 632 q 279 606 278 612 z "},"*":{"ha":572,"x_min":18,"x_max":548,"o":"m 170 560 q 111 521 132 537 q 71 507 91 505 q 37 534 50 509 l 37 534 q 31 560 31 544 q 38 594 31 576 l 38 594 q 100 648 54 633 l 100 648 q 179 692 138 662 l 179 692 q 131 720 155 707 q 85 745 107 732 l 85 745 q 23 791 35 773 l 23 791 q 19 849 5 818 l 19 849 q 72 878 33 883 q 129 860 111 873 q 157 830 146 846 q 174 800 168 814 q 188 780 180 785 q 204 775 195 774 q 224 774 213 776 l 224 774 q 225 820 225 800 q 227 880 225 840 q 225 946 228 920 q 233 987 222 972 l 233 987 q 301 994 256 1021 l 301 994 q 338 945 331 977 q 339 887 345 914 l 339 887 q 335 799 330 838 l 335 799 q 418 857 380 827 q 476 890 456 887 q 512 888 496 894 q 537 871 528 883 l 537 871 q 541 810 562 844 q 501 767 521 777 q 462 754 481 757 q 427 752 442 751 q 402 747 411 753 q 391 732 393 742 q 374 707 388 722 l 374 707 l 411 682 q 460 649 427 671 q 517 614 494 627 q 548 582 541 602 l 548 582 q 545 548 557 564 q 517 525 532 532 q 484 518 502 518 l 484 518 q 407 551 442 515 l 407 551 q 343 597 382 575 l 343 597 q 349 503 346 547 q 345 441 353 460 q 325 412 338 423 q 296 399 312 401 l 296 399 q 239 437 259 395 l 239 437 q 255 557 212 491 l 255 557 q 263 579 263 571 l 263 579 q 259 593 263 587 q 251 606 255 598 l 251 606 q 216 586 232 595 q 170 560 201 576 l 170 560 z "},"+":{"ha":557,"x_min":1,"x_max":551,"o":"m 323 528 l 323 528 l 490 537 q 525 536 511 537 l 525 536 q 551 498 548 533 l 551 498 q 538 447 552 463 q 509 431 525 431 l 509 431 q 479 425 498 423 q 444 428 460 426 q 420 429 427 430 q 410 426 414 427 l 410 426 q 384 431 400 423 q 345 433 368 439 l 345 433 q 343 361 339 391 q 347 324 347 331 q 345 312 346 317 l 345 312 q 349 282 342 301 l 349 282 q 339 210 366 236 l 339 210 q 304 195 327 199 q 264 196 281 190 q 236 216 247 202 l 236 216 q 216 281 213 243 l 216 281 q 216 312 217 307 l 216 312 q 220 335 212 319 l 220 335 q 221 423 229 359 l 221 423 q 176 410 183 406 q 164 413 170 414 q 155 410 159 412 l 155 410 q 132 410 141 406 q 114 414 123 414 l 114 414 l 76 411 q 46 420 64 411 q 18 429 28 429 l 18 429 q 3 471 11 448 q 2 506 -5 494 q 19 524 9 518 q 41 532 28 529 l 41 532 q 76 536 62 537 q 100 532 90 536 q 119 526 110 529 l 119 526 q 155 522 145 517 q 168 526 164 526 q 176 525 171 526 q 189 522 182 524 q 212 519 197 519 l 212 519 q 217 593 217 559 q 214 656 217 628 q 209 702 212 684 q 206 728 206 720 l 206 728 q 244 776 206 761 l 244 776 q 280 777 256 780 q 321 755 304 774 q 338 706 339 735 q 336 656 338 677 q 332 613 335 636 q 327 568 330 590 q 323 528 324 545 z "},",":{"ha":206,"x_min":7,"x_max":183,"o":"m 183 12 q 182 -5 187 0 q 178 -26 178 -11 q 174 -50 179 -42 q 165 -69 168 -58 l 165 -69 q 159 -83 163 -80 q 151 -99 155 -87 l 151 -99 q 137 -111 145 -110 q 127 -122 129 -111 l 127 -122 q 91 -142 125 -142 l 91 -142 q 52 -119 56 -142 l 52 -119 q 62 -94 50 -111 q 83 -73 75 -77 q 102 -64 91 -69 q 115 -46 114 -58 q 107 -18 115 -34 l 107 -18 q 85 -22 96 -24 q 62 -22 75 -19 q 42 -16 49 -24 q 20 -3 35 -8 l 20 -3 q 7 37 4 4 l 7 37 q 37 114 12 102 l 37 114 q 57 124 50 119 q 68 132 64 129 q 75 134 72 134 q 87 132 77 134 q 109 134 98 129 q 123 135 119 140 q 132 130 126 130 q 144 127 138 129 l 144 127 q 165 108 160 122 q 172 91 170 94 q 175 87 174 88 l 175 87 q 179 66 176 84 l 179 66 q 180 48 180 54 q 179 38 179 42 l 179 38 l 179 30 q 183 12 179 24 z "},"-":{"ha":541,"x_min":15,"x_max":533,"o":"m 19 419 l 19 419 q 16 488 -7 445 l 16 488 q 109 528 43 543 l 109 528 q 186 523 155 517 q 228 524 218 529 q 245 519 237 518 q 263 524 252 521 l 263 524 q 334 532 296 532 l 334 532 q 385 534 359 532 q 431 537 410 536 l 431 537 q 503 532 484 540 l 503 532 q 533 491 530 515 l 533 491 q 509 427 538 445 q 459 412 479 410 q 424 422 439 414 q 397 439 408 430 q 378 449 385 449 q 365 445 370 449 q 353 435 359 441 l 353 435 q 309 423 335 423 q 275 421 283 423 q 260 415 267 419 l 260 415 q 222 408 245 408 l 222 408 q 180 408 198 408 l 180 408 q 118 410 156 408 q 58 410 80 412 q 19 419 35 407 z "},".":{"ha":229,"x_min":7,"x_max":209,"o":"m 10 24 q 7 45 5 34 q 29 73 9 56 q 79 107 49 91 q 161 117 110 123 l 161 117 q 201 88 186 114 l 201 88 q 208 50 212 66 q 195 21 205 33 q 174 0 186 9 l 174 0 q 130 -20 149 -18 q 104 -32 111 -23 q 79 -37 96 -41 q 58 -20 62 -33 q 42 -3 53 -7 q 23 8 31 1 q 10 24 15 15 z "},"/":{"ha":468,"x_min":0,"x_max":460,"o":"m 391 1010 l 391 1010 q 433 1020 415 1028 q 459 975 450 1012 q 446 892 468 937 q 414 835 425 848 q 393 811 403 822 l 393 811 q 361 747 373 788 q 343 693 350 707 q 331 669 336 680 l 331 669 q 301 582 315 642 l 301 582 q 267 481 286 519 q 235 419 247 442 q 214 363 224 396 q 193 304 203 330 q 175 256 183 278 l 175 256 q 155 175 155 202 l 155 175 q 132 85 155 130 l 132 85 q 58 -8 88 1 l 58 -8 q 29 -7 49 -11 q 0 22 9 -4 l 0 22 q 20 156 -20 84 l 20 156 q 52 224 43 194 q 67 271 60 254 q 81 308 75 288 q 92 350 87 328 l 92 350 q 118 426 106 401 l 118 426 q 140 467 126 442 q 167 521 153 491 l 167 521 q 209 640 198 590 q 228 703 220 690 q 245 712 236 716 l 245 712 q 300 836 260 788 l 300 836 q 320 879 316 856 l 320 879 q 391 1010 340 975 z "},":":{"ha":229,"x_min":7,"x_max":209,"o":"m 60 471 q 93 473 77 479 q 117 472 109 468 q 134 477 125 476 q 152 477 142 479 l 152 477 q 179 465 174 475 q 192 442 184 454 q 195 415 199 430 l 195 415 q 190 391 191 400 q 181 372 189 381 q 163 354 174 363 q 141 335 153 345 l 141 335 q 86 315 111 313 q 53 328 61 316 q 34 347 45 339 l 34 347 q 20 404 9 365 q 37 453 31 442 q 60 471 42 464 z m 10 24 q 7 45 5 34 q 29 73 9 56 q 79 107 49 91 q 161 117 110 123 l 161 117 q 201 88 186 114 l 201 88 q 208 50 212 66 q 195 21 205 33 q 174 0 186 9 l 174 0 q 130 -20 149 -18 q 104 -32 111 -23 q 79 -37 96 -41 q 58 -20 62 -33 q 42 -3 53 -7 q 23 8 31 1 q 10 24 15 15 z "},";":{"ha":210,"x_min":11,"x_max":189,"o":"m 187 12 q 186 -5 191 0 q 182 -26 182 -11 q 178 -50 183 -42 q 169 -69 172 -58 q 161 -83 165 -80 q 154 -98 157 -87 q 142 -111 151 -110 q 132 -122 133 -111 l 132 -122 q 95 -142 129 -142 l 95 -142 q 56 -119 60 -142 l 56 -119 q 66 -94 54 -111 q 87 -73 79 -77 q 106 -63 95 -69 q 119 -45 118 -57 q 111 -18 119 -34 l 111 -18 q 90 -22 100 -24 q 65 -22 79 -19 q 45 -16 52 -24 q 24 -3 39 -8 l 24 -3 q 11 37 8 4 l 11 37 q 41 114 16 102 l 41 114 q 61 124 54 119 q 72 132 68 129 q 79 134 76 134 q 92 132 83 134 q 113 134 102 129 q 127 135 123 140 q 136 130 130 130 q 149 127 142 129 l 149 127 q 170 104 165 121 l 170 104 q 178 88 175 91 l 178 88 q 183 66 182 84 l 183 66 q 184 48 184 54 q 183 38 183 42 l 183 38 l 183 30 q 187 12 183 24 z m 48 474 q 82 477 66 481 q 106 476 98 472 q 124 481 115 480 q 142 480 133 481 l 142 480 q 170 468 164 479 q 184 445 176 457 q 188 417 193 433 q 182 392 183 401 q 173 373 180 382 q 155 354 165 363 q 132 335 145 345 l 132 335 q 75 314 99 312 q 41 328 50 316 q 20 347 33 339 l 20 347 q 12 418 -1 366 l 12 418 q 24 456 19 446 q 48 474 30 467 z "},"?":{"ha":534,"x_min":-5,"x_max":514,"o":"m 310 985 q 328 990 319 987 q 361 992 338 993 q 399 978 385 991 q 431 959 414 964 q 455 941 449 954 q 465 923 461 928 q 475 914 469 918 l 475 914 q 490 884 486 902 q 498 859 494 867 q 505 844 502 850 l 505 844 q 510 809 511 826 q 513 782 509 792 q 513 753 517 772 q 513 718 510 735 q 505 679 515 700 q 479 638 494 658 q 463 591 465 618 l 463 591 q 414 526 457 545 l 414 526 q 381 498 392 515 q 363 459 370 481 q 353 413 357 437 q 345 365 349 389 l 345 365 q 340 293 338 309 q 338 260 342 277 q 326 229 334 244 l 326 229 q 285 195 305 193 l 285 195 q 255 193 267 195 l 255 193 q 225 197 236 189 l 225 197 q 195 228 202 214 l 195 228 q 188 290 182 255 q 191 347 194 324 q 182 391 187 369 l 182 391 q 194 526 157 469 l 194 526 q 216 547 205 543 l 216 547 q 233 566 227 553 q 250 578 240 578 q 276 591 260 578 q 307 627 292 605 l 307 627 q 330 715 343 681 l 330 715 q 296 738 317 745 l 296 738 q 281 736 288 736 q 270 747 274 735 l 270 747 q 231 773 259 772 l 231 773 q 186 742 201 776 l 186 742 q 174 713 178 724 q 165 694 170 703 l 165 694 q 140 680 159 682 q 114 679 122 677 q 101 684 106 681 q 93 689 96 686 q 83 692 90 692 q 66 696 77 692 q 45 712 56 701 l 45 712 q 9 777 18 739 q -5 831 1 815 q -1 859 -12 846 l -1 859 q 19 884 9 871 l 19 884 q 52 928 42 924 q 68 935 61 932 l 68 935 q 96 958 84 941 q 113 980 107 974 q 126 989 119 986 q 141 991 133 991 q 161 992 149 991 q 179 996 172 993 q 191 1001 186 998 l 191 1001 q 219 1001 205 1005 q 237 994 233 997 q 244 987 241 990 l 244 987 q 270 978 252 979 l 270 978 q 292 979 283 977 q 310 985 301 982 z m 204 108 q 235 110 221 115 q 261 111 250 104 q 292 115 273 117 q 317 101 311 113 q 331 79 323 90 q 335 54 339 68 q 330 30 331 39 q 321 12 328 20 q 303 -5 313 4 q 281 -24 293 -15 l 281 -24 q 227 -44 251 -46 q 195 -31 203 -42 q 176 -11 187 -19 l 176 -11 q 170 54 157 3 l 170 54 q 182 91 176 81 q 204 108 187 100 z "},"@":{"ha":954,"x_min":7,"x_max":939,"o":"m 936 594 l 936 594 l 935 562 q 939 537 935 553 l 939 537 q 924 480 945 511 l 924 480 q 909 411 924 430 l 909 411 q 880 361 886 381 q 867 334 873 340 q 854 320 861 327 l 854 320 q 823 289 830 301 q 806 270 817 277 q 780 250 796 263 l 780 250 q 711 228 730 209 l 711 228 q 682 254 694 248 l 682 254 q 662 327 659 269 l 662 327 q 615 301 631 316 q 579 258 600 286 q 530 220 559 231 q 468 203 502 210 q 412 202 434 195 l 412 202 q 362 266 384 210 l 362 266 q 340 294 353 288 q 312 304 328 300 l 312 304 q 244 391 275 313 l 244 391 q 232 423 237 410 l 232 423 q 264 621 210 468 l 264 621 q 296 680 279 659 q 327 717 312 701 q 351 744 342 732 q 369 765 359 755 l 369 765 q 421 791 392 788 q 464 795 450 793 q 486 798 477 798 l 486 798 q 507 787 499 798 q 522 773 515 776 q 533 769 528 770 q 545 766 538 768 l 545 766 q 564 751 556 764 q 575 732 571 738 l 575 732 q 594 724 583 719 q 608 737 605 728 q 613 757 610 746 l 613 757 q 670 799 627 810 l 670 799 q 698 776 692 793 q 708 754 704 758 q 716 749 712 750 l 716 749 q 723 713 732 742 q 704 662 713 685 l 704 662 q 692 471 686 507 q 707 421 697 435 q 733 405 718 407 q 758 410 749 403 l 758 410 q 779 438 768 416 l 779 438 l 798 476 q 817 563 825 536 q 810 613 808 590 q 815 659 812 636 l 815 659 q 804 747 822 718 q 780 790 787 776 q 769 812 773 804 l 769 812 q 753 831 762 827 l 753 831 q 740 844 746 834 q 724 865 734 854 l 724 865 q 666 901 699 897 q 612 907 633 906 q 572 910 591 909 l 572 910 q 509 924 533 913 q 463 937 486 936 q 418 933 439 937 l 418 933 q 351 910 370 925 q 322 888 331 895 q 304 873 313 882 l 304 873 q 255 844 294 867 l 255 844 q 215 807 228 827 q 195 772 202 787 q 178 745 187 758 q 165 711 168 731 q 149 671 163 690 l 149 671 q 132 631 136 652 q 117 583 127 609 q 104 532 107 556 q 100 482 100 509 q 100 429 99 456 q 100 378 100 403 l 100 378 q 115 336 109 363 q 141 289 122 309 l 141 289 q 167 267 152 279 q 205 233 182 254 q 241 202 228 213 q 269 178 254 191 l 269 178 q 331 121 290 157 q 395 77 372 85 q 444 67 419 69 q 497 66 469 65 q 549 66 525 68 q 587 69 574 65 q 625 84 600 73 q 664 96 650 95 q 692 100 678 96 l 692 100 q 724 99 716 110 q 718 77 731 88 q 677 51 705 65 q 630 23 648 37 q 591 6 612 9 q 562 -3 571 3 q 543 -16 553 -9 l 543 -16 q 482 -31 517 -31 q 430 -26 448 -31 q 400 -14 412 -20 q 377 1 388 -7 q 345 15 366 9 q 310 22 324 20 q 285 27 296 24 l 285 27 q 193 71 224 38 l 193 71 q 168 102 179 87 q 144 130 157 117 q 108 151 132 144 q 71 174 84 157 q 52 210 58 190 q 40 253 45 231 q 24 305 35 275 q 12 375 12 335 q 8 447 11 415 q 7 493 5 479 q 11 521 8 507 q 17 551 14 534 q 23 591 20 567 l 23 591 q 38 651 30 636 l 38 651 q 62 711 54 684 l 62 711 q 142 837 75 743 l 142 837 q 278 951 221 933 l 278 951 q 309 964 296 956 q 335 981 321 972 l 335 981 q 403 1006 368 1000 l 403 1006 q 444 1016 426 1010 q 477 1025 463 1021 l 477 1025 q 541 1031 515 1035 q 580 1027 566 1028 q 605 1025 594 1027 l 605 1025 q 647 1017 629 1024 q 682 1003 665 1009 q 718 987 699 997 l 718 987 q 829 887 781 959 l 829 887 q 844 863 838 873 l 844 863 q 871 823 859 836 q 887 801 883 810 q 894 784 891 792 l 894 784 l 901 765 q 915 730 903 755 q 928 680 926 705 q 932 629 929 655 q 936 594 936 604 z m 549 420 q 564 443 555 431 q 574 470 574 454 q 578 492 575 486 q 586 509 582 499 l 586 509 q 595 557 595 530 q 589 599 595 585 q 575 626 583 613 q 558 652 567 639 q 544 685 549 666 l 544 685 q 520 704 537 704 q 494 701 503 704 q 479 694 484 699 q 472 686 475 690 l 472 686 q 448 655 461 667 l 448 655 q 418 620 425 635 q 410 592 412 605 q 399 553 407 579 q 385 492 392 526 q 386 439 377 458 q 406 410 395 420 q 429 389 416 399 l 429 389 q 473 369 454 369 q 504 378 491 369 q 530 396 517 387 l 530 396 q 549 420 543 408 z "}}}
